<?xml version="1.0" encoding="utf-8"?>
<!-- Generator: Adobe Illustrator 25.0.1, SVG Export Plug-In . SVG Version: 6.00 Build 0)  -->
<svg version="1.1" id="Layer_1" xmlns="http://www.w3.org/2000/svg" xmlns:xlink="http://www.w3.org/1999/xlink" x="0px" y="0px"
	 viewBox="0 0 988 714.1" style="enable-background:new 0 0 988 714.1;" xml:space="preserve">
<style type="text/css">
	.st0{fill-rule:evenodd;clip-rule:evenodd;fill:#293E40;}
	.st1{fill-rule:evenodd;clip-rule:evenodd;fill:#E5E5E5;}
	.st2{fill-rule:evenodd;clip-rule:evenodd;fill:#D3D1CF;}
	.st3{fill-rule:evenodd;clip-rule:evenodd;fill:#83B7A2;}
	.st4{fill:#E5E5E5;}
	.st5{fill-rule:evenodd;clip-rule:evenodd;fill:#E6B99B;}
	.st6{fill-rule:evenodd;clip-rule:evenodd;fill:#D6D7D7;}
	.st7{fill:#4788C8;}
	.st8{fill-rule:evenodd;clip-rule:evenodd;fill:#F6F7F7;}
	.st9{fill-rule:evenodd;clip-rule:evenodd;fill:#80B59F;}
	.st10{fill:#83B7A2;}
</style>
<path class="st0" d="M611.4,235.4c0,0-75.6-20.5-75.6-24.8c0-4.4,1.3-3.9,2.2-8.1c0.9-4.1,0.4-9.1,2-13.1s5.4-7.4,8.1-10.9
	c2.6-3.5,3.9-8.3,6.8-11.5c2.8-3.3,8.1-4.6,11.5-6.8c3.5-2.2,6.8-6.3,10.9-8.1c4.1-1.7,8.9-1.3,13.1-2.2c4.1-0.9,8.7-3.3,13.1-3.3
	c4.4,0,8.7,2.6,13.1,3.3c4.1,0.9,8.9,0.2,13.1,2.2c4.1,2,7,5.4,10.9,8.1c3.9,2.6,8.3,3.5,11.5,6.8c3.3,3.3,4.1,7.6,6.8,11.5l0.7,0.7
	c1.3-2.2,4.1-3.9,5.4-6.3c2-2.6,2.2-6.1,4.4-8.3c2.2-2.2,6.1-2.8,8.7-4.4c2.6-2,4.4-5.2,7.4-6.1s6.3-0.2,9.6-0.9
	c3.3-0.7,5.7-2.8,8.9-2.8c3.3,0,6.3,2.2,9.1,2.8c3.3,0.7,6.8-0.2,9.6,0.9c2.8,1.1,4.8,4.1,7.4,6.1c2.6,1.5,6.3,2.2,8.7,4.4
	c2.4,2.2,2.6,5.7,4.4,8.3c1.7,2.6,4.8,4.6,6.1,7.4c1.3,2.8,0.4,6.8,0.7,9.6c0.2,2.8,2.8,6.1,2.8,9.1c0,3-2.2,6.1-2.8,9.1
	c-0.4,2.8,0.7,6.8-0.7,9.1c-1.3,3.3-4.4,4.8-6.1,7.4c-1.7,2.6-2.2,6.3-4.4,8.7c-2.2,2.4-6.1,2.8-8.7,4.4s-4.4,5-7.4,6.1
	c-3,1.1-6.3,0.2-9.6,0.9c-2.8,0.7-6.1,2.8-9.1,2.8s-6.1-2.2-8.9-2.8c-2.8-0.7-6.8,0.2-9.6-0.9c-2.8-1.1-4.8-4.4-7.4-6.1
	c-2.6-1.7-6.3-2.2-8.7-4.4c-0.4-0.4-0.7-1.1-0.9-1.5c0,3.3-0.7,6.8-1.5,9.8c-1.5,4.1-5.4,7-8.1,10.5c-2.6,3.5-3.9,8.3-6.8,11.5
	s-8.1,4.4-11.5,7C638.4,271.8,611.4,235.4,611.4,235.4z"/>
<path class="st1" d="M890.6,336.7h0.4c1.7,0,2.8-1.3,2.8-3v-0.2C885.3,169,745.3,42.7,580.9,51.2c-34.4,1.7-68.4,9.6-100.2,22.9
	c-1.5,0.9-2.2,2.8-1.5,4.6c0.7,1.5,2.6,2.2,4.1,1.5C519.2,64.9,557.8,57,596.8,57c155.1,0,282.9,121.7,290.7,276.6
	C887.5,335.4,888.8,336.7,890.6,336.7z"/>
<path class="st1" d="M746.2,605.9c0.7,0,1.1-0.2,1.5-0.7c58.8-34.6,103.9-88.4,127.8-152.5c0.7-1.7-0.2-3.5-1.7-4.1l0,0
	c-1.5-0.7-3.3,0-3.9,1.5c0,0,0,0.2-0.2,0.2c-23.5,62.5-67.5,115-124.8,149.2c-1.5,0.9-2,2.8-1.1,4.4c0,0,0,0,0,0.2
	C744,605,745.1,605.6,746.2,605.9z"/>
<path class="st1" d="M394.9,566.4c0.9,0,1.5-0.4,2.2-0.9c1.3-1.1,1.3-3,0-4.4l0,0c-105.2-99.1-122.2-260.3-39.9-379
	c1.1-1.3,0.9-3-0.2-4.1c-0.2,0-0.2-0.2-0.4-0.2c-1.5-0.9-3.3-0.7-4.4,0.9l0,0c-34.8,49.9-53.4,109.3-53.4,170.1
	c-0.2,82.1,33.8,160.7,93.6,216.9C393.1,566.2,394,566.4,394.9,566.4z"/>
<path class="st2" d="M811.9,713.9c0,0,75.1-245-119.8-332.3L201.5,600.6l-12.4,113.2H811.9z"/>
<path class="st3" d="M879.5,713.9H502.7l25.9-96c0-8.3,7.6-15,17.2-15h192.7c34.4,0,67.1,14.6,86.5,39.6L879.5,713.9z"/>
<circle class="st4" cx="323.2" cy="444.9" r="37.5"/>
<path class="st3" d="M338.9,432.3l-19.8,21.3l-10.5-12.8c-1.7-2.2-4.8-2.4-7-0.7l17.2,21.3l23.5-26.1L338.9,432.3z"/>
<polygon class="st5" points="237,552.1 168.2,578 187.1,607.6 255.5,595.4 "/>
<path class="st6" d="M113.3,527l58.1,35.7l18.3,1.5l0.9,2.8l0.7,1.5c1.5,5,0.2,10.7-3.5,14.4c-0.7,0.4-1.3,0.9-2,1.5l6.8,36.8
	c0.7,5.4-2.8,7-8.1,8.9l-32.2,15.7L89.3,530.1c0,0,8.1-2.6,13.7-4.4C106.5,524.4,110.2,524.8,113.3,527z"/>
<path class="st0" d="M113.3,527l58.1,35.7l18.3,1.5l0.9,2.8l0.7,1.5c1.5,5,0.2,10.7-3.5,14.4c-0.7,0.4-1.3,0.9-2,1.5l6.8,36.8
	c0.7,5.4-2.8,7-8.1,8.9l-32.2,15.7L89.3,530.1c0,0,8.1-2.6,13.7-4.4C106.5,524.4,110.2,524.8,113.3,527z"/>
<path class="st3" d="M25.3,713.9h267.2v-11.5c0-54.9-44.6-99.5-99.5-99.5h-68.2c-54.9,0-99.5,44.6-99.5,99.5V713.9z"/>
<polygon class="st5" points="360,674.7 324.8,664.7 346.5,608.3 390.5,625 363.3,669.7 "/>
<path class="st3" d="M237,552.3l145.9-54.2l4.1-12.8c3.7-12,14.4-20.5,26.8-21.8l275.1-18.7l-28.7,53.4l-104.8-2.6
	c-51.6-1.3-91,11.8-120.2,56.8l-0.7,0.7c-1.1,2-2.2,3.9-3.5,5.7L390.5,625l-44-16.6l11.1-33.8l-102.4,21.1L237,552.3z"/>
<path class="st2" d="M435.4,552.1L435.4,552.1l-0.7,0.7L435.4,552.1z"/>
<path class="st2" d="M360.3,674.7l3.3-5L391,625l40.5-66.4l3.5-5.7l0.7-0.7l-17.2,161.8h-81.9L360.3,674.7z"/>
<path class="st0" d="M250.9,694.3l57.1-24l12.2-17.2h4.8c5.2,0.2,10,3.7,11.8,8.5c0.2,0.7,0.7,1.5,0.9,2.2l25.5,5.7l-27.2,44.2
	h-92.3v-10.9C244,698.6,247.2,695.8,250.9,694.3z"/>
<path class="st5" d="M535.8,210.6c0,0,78.6,17.2,78,17.4c-0.7,0.2,0.7,0,0.7-0.2c6.1-2.4,12.8,0.7,15.2,6.8
	c1.3,3.7,0.4,7.8-2.2,10.9l12.6,21.3c4.4,7,10.5,12.8,17.9,16.6l1.3,0.7l15.7,18.7l-84.1,68.2l13.1-35.7c3.9-9.6,2.6-20.3-3.5-28.7
	l-0.9-0.9l-11.8-14.4c-29.8,3.5-38.5-24.2-38.5-24.2c-1.7,0-3.7-0.4-5.4-0.9c-2-0.9-1.3-2.6-0.9-4.4l1.5-6.8c0,0-8.1-36.6-8.3-38.3
	C536,214.7,535.8,212.5,535.8,210.6z"/>
<path class="st5" d="M543.9,434l-64.7,9.1c-21.3,4.4-22,13.1-22,12.8v0.2l86.7,5.4V434z"/>
<path class="st0" d="M388.1,325.8l36.6,130.7h120c7,0,12.6,2.6,12.4,9.6H423.4c-4.1,0-7.8-2.8-8.7-7l-34.2-121.5
	C379.6,332.1,382.9,326.9,388.1,325.8L388.1,325.8z"/>
<path class="st0" d="M388.1,325.8l36.6,130.7h120c7,0,12.6,2.6,12.4,9.6H423.4c-4.1,0-7.8-2.8-8.7-7l-34.2-121.5
	C379.6,332.1,382.9,326.9,388.1,325.8L388.1,325.8z"/>
<path class="st3" d="M571.5,388.9l88-105c76.2,29.6,53.4,124.1,35.7,108c-0.7-0.7-107.8,58.8-107.8,58.8l1.3-19.8
	c-10.5-2-18.7-9.8-21.3-20.3C565.4,403.3,566.9,395.3,571.5,388.9z"/>
<path class="st0" d="M611.1,424.4c3.3-0.2,5.9-2.2,7.4-5.2l10.9-24.6c-5.4-8.1-8.3-17.4-8.3-27.2c0-25.9,21.1-47,47-47
	c25.9,0,47,21.1,47,47c0,8.5-2.4,16.6-6.3,24c-0.4,1.3,40.5,95.8-35.7,126.3c-7,2.2-14.2,3.7-21.3,4.4
	c-39.9,5.2-78.2-17.2-93.6-54.2l-1.5-5.4l-12.8-0.9v-27.9L611.1,424.4z"/>
<rect x="273.4" y="377.8" class="st7" width="0.2" height="0.2"/>
<path class="st0" d="M556.7,262.6c9.1,0,16.6-7.4,16.6-16.3v-0.2c0.2-9.1-7.2-16.8-16.6-17l0,0c-9.4,0-16.8,7.6-16.8,17
	C539.9,255.2,547.6,262.6,556.7,262.6L556.7,262.6z M556.7,225.8c7.2,0,13.7,3.9,17.2,10.2l43.3-19.2l1.3,3.3l-43.3,18.7
	c0.9,2.2,1.3,4.6,1.3,7c-0.2,10.9-9.1,19.8-20.3,19.6c-11.1-0.2-19.8-9.1-19.6-20.3C536.9,234.3,546,225.6,556.7,225.8L556.7,225.8z
	"/>
<polygon class="st8" points="695.4,529 752.3,529 747.5,571.9 699.8,571.9 "/>
<polygon class="st0" points="747.5,571.9 744.2,603 703.3,603 697.6,550.3 "/>
<path class="st9" d="M695.4,529h56.8v-0.2c0-5.4-4.4-9.8-9.8-10h-37c-5.4,0-9.8,4.6-9.8,10L695.4,529z"/>
<path class="st4" d="M822,137h73c2.8,0,5,2.2,5,5v101.5c0,2.8-2.2,5-5,5h-73c-2.8,0-5-2.2-5-5V142C816.7,139.4,819.1,137,822,137z"
	/>
<rect x="828.7" y="170.7" class="st10" width="59.5" height="4.6"/>
<rect x="828.7" y="188.8" class="st10" width="59.5" height="5.2"/>
<rect x="828.7" y="207.5" class="st10" width="59.5" height="5"/>
<ellipse class="st4" cx="670.2" cy="70.8" rx="39.9" ry="39.9"/>
<path class="st3" d="M667.6,57.7c0.9,0.4,1.1,1.5,0.7,2.4c0,0,0,0.2-0.2,0.2l-6.1,8.3h22c1.1,0,2,0.7,2,1.7v0.2
	c0.2,0.9-0.4,1.7-1.5,2c-0.2,0-0.2,0-0.4,0h-22.2l6.3,8.1c0.7,0.9,0.2,2.2-0.7,2.8c-0.2,0.2-0.7,0.4-0.9,0.2c-0.7,0-1.1-0.2-1.5-0.7
	l-9.1-12.2l9.1-12.8C665.8,57.3,667.1,56.8,667.6,57.7z"/>
<path class="st3" d="M670.2,91.4c11.3,0,20.7-9.1,20.7-20.5s-9.1-20.7-20.5-20.7c-11.3,0-20.7,9.1-20.7,20.5S658.8,91.4,670.2,91.4z
	 M670.2,46.4c13.5,0,24.6,10.9,24.6,24.4s-10.9,24.6-24.4,24.6S645.8,84.5,645.8,71v-0.2C646,57.3,656.9,46.4,670.2,46.4z"/>
<path class="st1" d="M851.4,391.8c0,20.7,16.8,37.7,37.5,37.7c20.9-0.7,37.2-17.9,36.6-38.8c-0.7-20-16.8-36.4-37-36.6
	C867.9,354.3,851.4,371.1,851.4,391.8L851.4,391.8z"/>
<path class="st3" d="M878.2,379.4c0,5.9,4.6,10.9,10.7,10.9h0.2c5.9-0.2,10.5-5,10.5-10.9c0-5.7-4.6-10.5-10.2-10.7H889
	C883.2,368.7,878.4,373.5,878.2,379.4z"/>
<path class="st3" d="M889,394.4c9.6-0.2,17.2,7.4,17.4,17v0.2h-34.6C871.8,402,879.5,394.4,889,394.4L889,394.4z"/>
<path class="st0" d="M587,616.3l15-34.4c0.7-1.5,0-3.3-1.3-3.9c-0.4-0.2-0.9-0.2-1.5-0.2l-23.5,0.7L587,616.3z"/>
<path class="st0" d="M525.6,588.2l15.2-34.6c0.9-1.5,2.6-2.2,4.1-1.3c0.2,0.2,0.7,0.4,0.9,0.7l15.2,17.9L525.6,588.2z"/>
<path class="st8" d="M517.7,713.9H433c0,0-5.4-18.7-8.1-29.4c-3-15.9-0.2-32.7,8.1-46.6c20.5-33.3,75.6-33.3,86.2-32.7
	c0-5,1.1-10,3.3-14.6c7.6-18.1,28.5-26.6,46.6-18.9c18.1,7.6,26.6,28.5,18.9,46.6c-0.2,0.4-0.4,0.9-0.4,1.3c-1.3,3-3,6.1-5,8.7
	L517.7,713.9z"/>
<path class="st0" d="M556.7,594.3c-0.9,2,0,4.4,2,5.2l0,0c2,0.7,4.1,0,5.2-2c0.9-1.7,0.2-4.1-1.5-5c-0.2,0-0.2-0.2-0.4-0.2
	C560,591.5,557.6,592.4,556.7,594.3L556.7,594.3z"/>
<path class="st0" d="M533.4,586c-0.9,1.5-0.2,3.7,1.3,4.4c0.2,0,0.4,0.2,0.7,0.2c2,0.9,4.1,0,5.2-2c0.9-1.5,0.2-3.7-1.3-4.4
	c-0.2,0-0.4-0.2-0.4-0.2C536.7,583.4,534.3,584.1,533.4,586z"/>
<path class="st1" d="M480,122.8c-0.2-35.7-29.2-64.7-65.1-64.7v5.2c33.1,0,59.7,27,59.7,59.9c0,33.1-27,59.7-59.9,59.7
	S355,155.9,355,123l0,0h-5c-0.7,35.9,27.9,65.6,63.8,66.2c35.9,0.7,65.6-27.9,66.2-63.8C480,124.3,480,123.7,480,122.8L480,122.8z"
	/>
<path class="st3" d="M414.9,63.4v-5.2c-35.7,0-64.7,29.2-64.9,64.9h5C355.2,90.1,381.8,63.4,414.9,63.4z"/>
<path class="st1" d="M274,279c0.7-15.9,13.7-28.3,29.6-28.3c15.9,0,29,12.4,29.8,28.3h4.4c12.8,0,23.5,10.5,23.5,23.5
	S350.9,326,337.8,326h-62.1c-12.8,0-23.3-10.7-23.3-23.5C252.5,290.1,261.8,280.1,274,279L274,279z"/>
<path class="st10" d="M326.5,301.8c0-2.4-2-4.6-4.6-4.6c-2.4,0-4.6,2-4.6,4.6c0,2.4,2,4.6,4.6,4.6
	C324.5,306.4,326.5,304.4,326.5,301.8L326.5,301.8z"/>
<path class="st10" d="M311.7,301.8c0-2.6-2-4.8-4.6-4.8c-2.6,0-4.8,2-4.8,4.6c0,2.6,2,4.8,4.6,4.8c0,0,0,0,0.2,0
	C309.5,306.4,311.5,304.4,311.7,301.8L311.7,301.8z"/>
<path class="st10" d="M296.4,301.8c0-2.4-2-4.6-4.6-4.6c-2.6,0-4.6,2-4.6,4.6c0,2.4,2,4.6,4.6,4.6l0,0
	C294.3,306.4,296.4,304.4,296.4,301.8L296.4,301.8z"/>
</svg>
